<svg xmlns="http://www.w3.org/2000/svg" xmlns:xlink="http://www.w3.org/1999/xlink" version="1.1" id="Layer_1" x="0px" y="0px" width="276.66802978515625" height="157.74798583984375" viewBox="77.49798583984375 290.2550048828125 276.66802978515625 157.74798583984375" enable-background="new 0 256 440 237" xml:space="preserve">
  <g>
    <path id="ID0.3324238723143935_1_" fill="#FF0000" d="M195.346,293.255h40.974v17.285h-40.974V293.255z" stroke-width="1"/>
    <path fill="none" stroke="#000000" stroke-width="6" stroke-miterlimit="10" d="M351.166,382.116&#13;&#10;&#9;c0,39.149-22.669,60.22-47.336,60.887c-18.448,0.499-38.648-26.001-87.998-26.001c-45.335,0-70.213,28.001-88.669,28.001&#13;&#10;&#9;c-19.333,0-46.665-23.737-46.665-62.887v-9.333c0-39.147,34.403-70.886,70.886-70.886H280.28c39.149,0,70.886,31.736,70.886,70.886&#13;&#10;&#9;V382.116z"/>
  </g>
</svg>